<svg xmlns="http://www.w3.org/2000/svg" width="1200" height="675" version="1.1"><defs><linearGradient id="gr0" x1="0%" x2="100%" y1="0%" y2="100%"><stop offset="0%" stop-color="rgb(120,127,148)"/><stop offset="100%" stop-color="rgb(109,120,140)"/></linearGradient></defs><polygon id="triangle36" points="1126,598 1199,671 740,660" style="fill: url(#gr0); stroke: rgb(0, 0, 0); stroke-width: 0;"/><defs><linearGradient id="gr1" x1="0%" x2="100%" y1="0%" y2="100%"><stop offset="0%" stop-color="rgb(163,167,184)"/><stop offset="100%" stop-color="rgb(140,146,165)"/></linearGradient></defs><polygon id="triangle36" points="452,568 619,543 740,660" style="fill: url(#gr1); stroke: rgb(0, 0, 0); stroke-width: 0;"/><defs><linearGradient id="gr2" x1="0%" x2="100%" y1="0%" y2="100%"><stop offset="0%" stop-color="rgb(140,143,165)"/><stop offset="100%" stop-color="rgb(131,136,157)"/></linearGradient></defs><polygon id="triangle36" points="619,543 738,364 740,660" style="fill: url(#gr2); stroke: rgb(0, 0, 0); stroke-width: 0;"/><defs><linearGradient id="gr3" x1="0%" x2="100%" y1="0%" y2="100%"><stop offset="0%" stop-color="rgb(153,157,175)"/><stop offset="100%" stop-color="rgb(150,154,173)"/></linearGradient></defs><polygon id="triangle36" points="452,568 619,543 474,406" style="fill: url(#gr3); stroke: rgb(0, 0, 0); stroke-width: 0;"/><defs><linearGradient id="gr4" x1="0%" x2="100%" y1="0%" y2="100%"><stop offset="0%" stop-color="rgb(140,143,165)"/><stop offset="100%" stop-color="rgb(150,154,172)"/></linearGradient></defs><polygon id="triangle36" points="738,364 784,276 750,298" style="fill: url(#gr4); stroke: rgb(0, 0, 0); stroke-width: 0;"/><defs><linearGradient id="gr5" x1="0%" x2="100%" y1="0%" y2="100%"><stop offset="0%" stop-color="rgb(150,154,173)"/><stop offset="100%" stop-color="rgb(176,179,195)"/></linearGradient></defs><polygon id="triangle36" points="472,372 474,406 574,359" style="fill: url(#gr5); stroke: rgb(0, 0, 0); stroke-width: 0;"/><defs><linearGradient id="gr6" x1="0%" x2="100%" y1="0%" y2="100%"><stop offset="0%" stop-color="rgb(158,163,180)"/><stop offset="100%" stop-color="rgb(173,176,192)"/></linearGradient></defs><polygon id="triangle36" points="474,406 619,543 574,359" style="fill: url(#gr6); stroke: rgb(0, 0, 0); stroke-width: 0;"/><defs><linearGradient id="gr7" x1="0%" x2="100%" y1="0%" y2="100%"><stop offset="0%" stop-color="rgb(142,145,166)"/><stop offset="100%" stop-color="rgb(170,172,190)"/></linearGradient></defs><polygon id="triangle36" points="619,543 738,364 574,359" style="fill: url(#gr7); stroke: rgb(0, 0, 0); stroke-width: 0;"/><defs><linearGradient id="gr8" x1="0%" x2="100%" y1="0%" y2="100%"><stop offset="0%" stop-color="rgb(163,166,184)"/><stop offset="100%" stop-color="rgb(185,187,202)"/></linearGradient></defs><polygon id="triangle36" points="738,364 750,298 574,359" style="fill: url(#gr8); stroke: rgb(0, 0, 0); stroke-width: 0;"/><defs><linearGradient id="gr9" x1="0%" x2="100%" y1="0%" y2="100%"><stop offset="0%" stop-color="rgb(184,187,201)"/><stop offset="100%" stop-color="rgb(152,156,176)"/></linearGradient></defs><polygon id="triangle36" points="206,621 207,443 307,450" style="fill: url(#gr9); stroke: rgb(0, 0, 0); stroke-width: 0;"/><defs><linearGradient id="gr10" x1="0%" x2="100%" y1="0%" y2="100%"><stop offset="0%" stop-color="rgb(148,152,172)"/><stop offset="100%" stop-color="rgb(151,155,174)"/></linearGradient></defs><polygon id="triangle36" points="207,443 265,314 307,450" style="fill: url(#gr10); stroke: rgb(0, 0, 0); stroke-width: 0;"/><defs><linearGradient id="gr11" x1="0%" x2="100%" y1="0%" y2="100%"><stop offset="0%" stop-color="rgb(159,163,180)"/><stop offset="100%" stop-color="rgb(148,152,171)"/></linearGradient></defs><polygon id="triangle36" points="265,314 472,372 307,450" style="fill: url(#gr11); stroke: rgb(0, 0, 0); stroke-width: 0;"/><defs><linearGradient id="gr12" x1="0%" x2="100%" y1="0%" y2="100%"><stop offset="0%" stop-color="rgb(155,159,177)"/><stop offset="100%" stop-color="rgb(152,156,175)"/></linearGradient></defs><polygon id="triangle36" points="452,568 474,406 307,450" style="fill: url(#gr12); stroke: rgb(0, 0, 0); stroke-width: 0;"/><defs><linearGradient id="gr13" x1="0%" x2="100%" y1="0%" y2="100%"><stop offset="0%" stop-color="rgb(161,165,181)"/><stop offset="100%" stop-color="rgb(154,159,177)"/></linearGradient></defs><polygon id="triangle36" points="472,372 474,406 307,450" style="fill: url(#gr13); stroke: rgb(0, 0, 0); stroke-width: 0;"/><defs><linearGradient id="gr14" x1="0%" x2="100%" y1="0%" y2="100%"><stop offset="0%" stop-color="rgb(144,148,168)"/><stop offset="100%" stop-color="rgb(137,143,163)"/></linearGradient></defs><polygon id="triangle36" points="738,364 740,660 1114,450" style="fill: url(#gr14); stroke: rgb(0, 0, 0); stroke-width: 0;"/><defs><linearGradient id="gr15" x1="0%" x2="100%" y1="0%" y2="100%"><stop offset="0%" stop-color="rgb(123,129,150)"/><stop offset="100%" stop-color="rgb(138,141,162)"/></linearGradient></defs><polygon id="triangle36" points="740,660 1126,598 1114,450" style="fill: url(#gr15); stroke: rgb(0, 0, 0); stroke-width: 0;"/><defs><linearGradient id="gr16" x1="0%" x2="100%" y1="0%" y2="100%"><stop offset="0%" stop-color="rgb(142,146,167)"/><stop offset="100%" stop-color="rgb(153,157,176)"/></linearGradient></defs><polygon id="triangle36" points="738,364 1114,450 1018,305" style="fill: url(#gr16); stroke: rgb(0, 0, 0); stroke-width: 0;"/><defs><linearGradient id="gr17" x1="0%" x2="100%" y1="0%" y2="100%"><stop offset="0%" stop-color="rgb(172,174,191)"/><stop offset="100%" stop-color="rgb(179,183,196)"/></linearGradient></defs><polygon id="triangle36" points="738,364 784,276 1018,305" style="fill: url(#gr17); stroke: rgb(0, 0, 0); stroke-width: 0;"/><defs><linearGradient id="gr18" x1="0%" x2="100%" y1="0%" y2="100%"><stop offset="0%" stop-color="rgb(169,173,188)"/><stop offset="100%" stop-color="rgb(176,180,194)"/></linearGradient></defs><polygon id="triangle36" points="784,276 875,143 1018,305" style="fill: url(#gr18); stroke: rgb(0, 0, 0); stroke-width: 0;"/><defs><linearGradient id="gr19" x1="0%" x2="100%" y1="0%" y2="100%"><stop offset="0%" stop-color="rgb(172,175,191)"/><stop offset="100%" stop-color="rgb(141,147,166)"/></linearGradient></defs><polygon id="triangle36" points="875,143 1060,246 1018,305" style="fill: url(#gr19); stroke: rgb(0, 0, 0); stroke-width: 0;"/><defs><linearGradient id="gr20" x1="0%" x2="100%" y1="0%" y2="100%"><stop offset="0%" stop-color="rgb(159,164,180)"/><stop offset="100%" stop-color="rgb(167,171,187)"/></linearGradient></defs><polygon id="triangle36" points="244,232 265,314 311,188" style="fill: url(#gr20); stroke: rgb(0, 0, 0); stroke-width: 0;"/><defs><linearGradient id="gr21" x1="0%" x2="100%" y1="0%" y2="100%"><stop offset="0%" stop-color="rgb(166,170,186)"/><stop offset="100%" stop-color="rgb(156,160,178)"/></linearGradient></defs><polygon id="triangle36" points="265,314 472,372 311,188" style="fill: url(#gr21); stroke: rgb(0, 0, 0); stroke-width: 0;"/><defs><linearGradient id="gr22" x1="0%" x2="100%" y1="0%" y2="100%"><stop offset="0%" stop-color="rgb(142,146,166)"/><stop offset="100%" stop-color="rgb(151,156,173)"/></linearGradient></defs><polygon id="triangle36" points="750,298 784,276 802,160" style="fill: url(#gr22); stroke: rgb(0, 0, 0); stroke-width: 0;"/><defs><linearGradient id="gr23" x1="0%" x2="100%" y1="0%" y2="100%"><stop offset="0%" stop-color="rgb(148,152,170)"/><stop offset="100%" stop-color="rgb(155,158,176)"/></linearGradient></defs><polygon id="triangle36" points="784,276 875,143 802,160" style="fill: url(#gr23); stroke: rgb(0, 0, 0); stroke-width: 0;"/><defs><linearGradient id="gr24" x1="0%" x2="100%" y1="0%" y2="100%"><stop offset="0%" stop-color="rgb(189,191,204)"/><stop offset="100%" stop-color="rgb(172,174,189)"/></linearGradient></defs><polygon id="triangle36" points="1114,450 1126,598 1191,505" style="fill: url(#gr24); stroke: rgb(0, 0, 0); stroke-width: 0;"/><defs><linearGradient id="gr25" x1="0%" x2="100%" y1="0%" y2="100%"><stop offset="0%" stop-color="rgb(118,125,145)"/><stop offset="100%" stop-color="rgb(121,129,149)"/></linearGradient></defs><polygon id="triangle36" points="1126,598 1199,671 1191,505" style="fill: url(#gr25); stroke: rgb(0, 0, 0); stroke-width: 0;"/><defs><linearGradient id="gr26" x1="0%" x2="100%" y1="0%" y2="100%"><stop offset="0%" stop-color="rgb(156,160,178)"/><stop offset="100%" stop-color="rgb(188,191,204)"/></linearGradient></defs><polygon id="triangle36" points="802,160 875,143 809,91" style="fill: url(#gr26); stroke: rgb(0, 0, 0); stroke-width: 0;"/><defs><linearGradient id="gr27" x1="0%" x2="100%" y1="0%" y2="100%"><stop offset="0%" stop-color="rgb(136,143,162)"/><stop offset="100%" stop-color="rgb(159,163,180)"/></linearGradient></defs><polygon id="triangle36" points="1060,246 1144,66 1026,-1" style="fill: url(#gr27); stroke: rgb(0, 0, 0); stroke-width: 0;"/><defs><linearGradient id="gr28" x1="0%" x2="100%" y1="0%" y2="100%"><stop offset="0%" stop-color="rgb(189,193,205)"/><stop offset="100%" stop-color="rgb(181,185,199)"/></linearGradient></defs><polygon id="triangle36" points="809,91 875,143 1026,-1" style="fill: url(#gr28); stroke: rgb(0, 0, 0); stroke-width: 0;"/><defs><linearGradient id="gr29" x1="0%" x2="100%" y1="0%" y2="100%"><stop offset="0%" stop-color="rgb(186,191,203)"/><stop offset="100%" stop-color="rgb(153,159,176)"/></linearGradient></defs><polygon id="triangle36" points="875,143 1060,246 1026,-1" style="fill: url(#gr29); stroke: rgb(0, 0, 0); stroke-width: 0;"/><defs><linearGradient id="gr30" x1="0%" x2="100%" y1="0%" y2="100%"><stop offset="0%" stop-color="rgb(186,189,203)"/><stop offset="100%" stop-color="rgb(168,171,188)"/></linearGradient></defs><polygon id="triangle36" points="1026,-1 1144,66 1198,2" style="fill: url(#gr30); stroke: rgb(0, 0, 0); stroke-width: 0;"/><defs><linearGradient id="gr31" x1="0%" x2="100%" y1="0%" y2="100%"><stop offset="0%" stop-color="rgb(161,165,182)"/><stop offset="100%" stop-color="rgb(146,153,171)"/></linearGradient></defs><polygon id="triangle36" points="1191,505 1199,671 1198,2" style="fill: url(#gr31); stroke: rgb(0, 0, 0); stroke-width: 0;"/><defs><linearGradient id="gr32" x1="0%" x2="100%" y1="0%" y2="100%"><stop offset="0%" stop-color="rgb(146,150,170)"/><stop offset="100%" stop-color="rgb(136,142,161)"/></linearGradient></defs><polygon id="triangle36" points="311,188 472,372 576,179" style="fill: url(#gr32); stroke: rgb(0, 0, 0); stroke-width: 0;"/><defs><linearGradient id="gr33" x1="0%" x2="100%" y1="0%" y2="100%"><stop offset="0%" stop-color="rgb(149,153,172)"/><stop offset="100%" stop-color="rgb(158,162,180)"/></linearGradient></defs><polygon id="triangle36" points="472,372 574,359 576,179" style="fill: url(#gr33); stroke: rgb(0, 0, 0); stroke-width: 0;"/><defs><linearGradient id="gr34" x1="0%" x2="100%" y1="0%" y2="100%"><stop offset="0%" stop-color="rgb(212,213,225)"/><stop offset="100%" stop-color="rgb(148,153,171)"/></linearGradient></defs><polygon id="triangle36" points="574,359 750,298 576,179" style="fill: url(#gr34); stroke: rgb(0, 0, 0); stroke-width: 0;"/><defs><linearGradient id="gr35" x1="0%" x2="100%" y1="0%" y2="100%"><stop offset="0%" stop-color="rgb(142,146,166)"/><stop offset="100%" stop-color="rgb(131,137,158)"/></linearGradient></defs><polygon id="triangle36" points="750,298 802,160 576,179" style="fill: url(#gr35); stroke: rgb(0, 0, 0); stroke-width: 0;"/><defs><linearGradient id="gr36" x1="0%" x2="100%" y1="0%" y2="100%"><stop offset="0%" stop-color="rgb(140,144,164)"/><stop offset="100%" stop-color="rgb(148,153,171)"/></linearGradient></defs><polygon id="triangle36" points="802,160 809,91 576,179" style="fill: url(#gr36); stroke: rgb(0, 0, 0); stroke-width: 0;"/><defs><linearGradient id="gr37" x1="0%" x2="100%" y1="0%" y2="100%"><stop offset="0%" stop-color="rgb(156,160,178)"/><stop offset="100%" stop-color="rgb(158,163,180)"/></linearGradient></defs><polygon id="triangle36" points="244,232 311,188 172,110" style="fill: url(#gr37); stroke: rgb(0, 0, 0); stroke-width: 0;"/><defs><linearGradient id="gr38" x1="0%" x2="100%" y1="0%" y2="100%"><stop offset="0%" stop-color="rgb(202,204,215)"/><stop offset="100%" stop-color="rgb(175,179,194)"/></linearGradient></defs><polygon id="triangle36" points="206,621 207,443 40,548" style="fill: url(#gr38); stroke: rgb(0, 0, 0); stroke-width: 0;"/><defs><linearGradient id="gr39" x1="0%" x2="100%" y1="0%" y2="100%"><stop offset="0%" stop-color="rgb(155,159,177)"/><stop offset="100%" stop-color="rgb(158,162,181)"/></linearGradient></defs><polygon id="triangle36" points="25,383 207,443 40,548" style="fill: url(#gr39); stroke: rgb(0, 0, 0); stroke-width: 0;"/><defs><linearGradient id="gr40" x1="0%" x2="100%" y1="0%" y2="100%"><stop offset="0%" stop-color="rgb(172,177,191)"/><stop offset="100%" stop-color="rgb(168,172,188)"/></linearGradient></defs><polygon id="triangle36" points="25,383 34,135 2,43" style="fill: url(#gr40); stroke: rgb(0, 0, 0); stroke-width: 0;"/><defs><linearGradient id="gr41" x1="0%" x2="100%" y1="0%" y2="100%"><stop offset="0%" stop-color="rgb(143,147,167)"/><stop offset="100%" stop-color="rgb(155,159,177)"/></linearGradient></defs><polygon id="triangle36" points="34,135 172,110 2,43" style="fill: url(#gr41); stroke: rgb(0, 0, 0); stroke-width: 0;"/><defs><linearGradient id="gr42" x1="0%" x2="100%" y1="0%" y2="100%"><stop offset="0%" stop-color="rgb(163,167,184)"/><stop offset="100%" stop-color="rgb(165,168,185)"/></linearGradient></defs><polygon id="triangle36" points="40,548 206,621 52,634" style="fill: url(#gr42); stroke: rgb(0, 0, 0); stroke-width: 0;"/><defs><linearGradient id="gr43" x1="0%" x2="100%" y1="0%" y2="100%"><stop offset="0%" stop-color="rgb(161,166,183)"/><stop offset="100%" stop-color="rgb(145,149,168)"/></linearGradient></defs><polygon id="triangle36" points="2,43 25,383 6,618" style="fill: url(#gr43); stroke: rgb(0, 0, 0); stroke-width: 0;"/><defs><linearGradient id="gr44" x1="0%" x2="100%" y1="0%" y2="100%"><stop offset="0%" stop-color="rgb(173,178,192)"/><stop offset="100%" stop-color="rgb(160,164,181)"/></linearGradient></defs><polygon id="triangle36" points="25,383 40,548 6,618" style="fill: url(#gr44); stroke: rgb(0, 0, 0); stroke-width: 0;"/><defs><linearGradient id="gr45" x1="0%" x2="100%" y1="0%" y2="100%"><stop offset="0%" stop-color="rgb(155,160,178)"/><stop offset="100%" stop-color="rgb(132,136,157)"/></linearGradient></defs><polygon id="triangle36" points="40,548 52,634 6,618" style="fill: url(#gr45); stroke: rgb(0, 0, 0); stroke-width: 0;"/><defs><linearGradient id="gr46" x1="0%" x2="100%" y1="0%" y2="100%"><stop offset="0%" stop-color="rgb(130,134,155)"/><stop offset="100%" stop-color="rgb(142,146,166)"/></linearGradient></defs><polygon id="triangle36" points="6,618 52,634 7,670" style="fill: url(#gr46); stroke: rgb(0, 0, 0); stroke-width: 0;"/><defs><linearGradient id="gr47" x1="0%" x2="100%" y1="0%" y2="100%"><stop offset="0%" stop-color="rgb(208,209,220)"/><stop offset="100%" stop-color="rgb(176,179,195)"/></linearGradient></defs><polygon id="triangle36" points="206,621 307,450 268,666" style="fill: url(#gr47); stroke: rgb(0, 0, 0); stroke-width: 0;"/><defs><linearGradient id="gr48" x1="0%" x2="100%" y1="0%" y2="100%"><stop offset="0%" stop-color="rgb(131,134,156)"/><stop offset="100%" stop-color="rgb(152,156,174)"/></linearGradient></defs><polygon id="triangle36" points="307,450 452,568 268,666" style="fill: url(#gr48); stroke: rgb(0, 0, 0); stroke-width: 0;"/><defs><linearGradient id="gr49" x1="0%" x2="100%" y1="0%" y2="100%"><stop offset="0%" stop-color="rgb(150,154,173)"/><stop offset="100%" stop-color="rgb(147,153,170)"/></linearGradient></defs><polygon id="triangle36" points="452,568 740,660 268,666" style="fill: url(#gr49); stroke: rgb(0, 0, 0); stroke-width: 0;"/><defs><linearGradient id="gr50" x1="0%" x2="100%" y1="0%" y2="100%"><stop offset="0%" stop-color="rgb(206,207,218)"/><stop offset="100%" stop-color="rgb(168,173,188)"/></linearGradient></defs><polygon id="triangle36" points="206,621 268,666 126,672" style="fill: url(#gr50); stroke: rgb(0, 0, 0); stroke-width: 0;"/><defs><linearGradient id="gr51" x1="0%" x2="100%" y1="0%" y2="100%"><stop offset="0%" stop-color="rgb(144,151,168)"/><stop offset="100%" stop-color="rgb(112,122,142)"/></linearGradient></defs><polygon id="triangle36" points="268,666 740,660 126,672" style="fill: url(#gr51); stroke: rgb(0, 0, 0); stroke-width: 0;"/><defs><linearGradient id="gr52" x1="0%" x2="100%" y1="0%" y2="100%"><stop offset="0%" stop-color="rgb(135,138,160)"/><stop offset="100%" stop-color="rgb(153,157,175)"/></linearGradient></defs><polygon id="triangle36" points="52,634 206,621 126,672" style="fill: url(#gr52); stroke: rgb(0, 0, 0); stroke-width: 0;"/><defs><linearGradient id="gr53" x1="0%" x2="100%" y1="0%" y2="100%"><stop offset="0%" stop-color="rgb(146,150,169)"/><stop offset="100%" stop-color="rgb(131,136,158)"/></linearGradient></defs><polygon id="triangle36" points="7,670 52,634 126,672" style="fill: url(#gr53); stroke: rgb(0, 0, 0); stroke-width: 0;"/><defs><linearGradient id="gr54" x1="0%" x2="100%" y1="0%" y2="100%"><stop offset="0%" stop-color="rgb(115,125,145)"/><stop offset="100%" stop-color="rgb(114,124,145)"/></linearGradient></defs><polygon id="triangle36" points="740,660 1199,671 126,672" style="fill: url(#gr54); stroke: rgb(0, 0, 0); stroke-width: 0;"/><defs><linearGradient id="gr55" x1="0%" x2="100%" y1="0%" y2="100%"><stop offset="0%" stop-color="rgb(168,173,188)"/><stop offset="100%" stop-color="rgb(166,171,187)"/></linearGradient></defs><polygon id="triangle36" points="172,110 311,188 330,-1" style="fill: url(#gr55); stroke: rgb(0, 0, 0); stroke-width: 0;"/><defs><linearGradient id="gr56" x1="0%" x2="100%" y1="0%" y2="100%"><stop offset="0%" stop-color="rgb(133,139,160)"/><stop offset="100%" stop-color="rgb(130,137,157)"/></linearGradient></defs><polygon id="triangle36" points="311,188 576,179 330,-1" style="fill: url(#gr56); stroke: rgb(0, 0, 0); stroke-width: 0;"/><defs><linearGradient id="gr57" x1="0%" x2="100%" y1="0%" y2="100%"><stop offset="0%" stop-color="rgb(124,130,152)"/><stop offset="100%" stop-color="rgb(168,172,188)"/></linearGradient></defs><polygon id="triangle36" points="576,179 809,91 330,-1" style="fill: url(#gr57); stroke: rgb(0, 0, 0); stroke-width: 0;"/><defs><linearGradient id="gr58" x1="0%" x2="100%" y1="0%" y2="100%"><stop offset="0%" stop-color="rgb(190,194,206)"/><stop offset="100%" stop-color="rgb(173,177,192)"/></linearGradient></defs><polygon id="triangle36" points="809,91 1026,-1 330,-1" style="fill: url(#gr58); stroke: rgb(0, 0, 0); stroke-width: 0;"/><defs><linearGradient id="gr59" x1="0%" x2="100%" y1="0%" y2="100%"><stop offset="0%" stop-color="rgb(153,157,176)"/><stop offset="100%" stop-color="rgb(155,159,178)"/></linearGradient></defs><polygon id="triangle36" points="172,110 244,232 102,218" style="fill: url(#gr59); stroke: rgb(0, 0, 0); stroke-width: 0;"/><defs><linearGradient id="gr60" x1="0%" x2="100%" y1="0%" y2="100%"><stop offset="0%" stop-color="rgb(148,152,172)"/><stop offset="100%" stop-color="rgb(162,166,183)"/></linearGradient></defs><polygon id="triangle36" points="207,443 265,314 102,218" style="fill: url(#gr60); stroke: rgb(0, 0, 0); stroke-width: 0;"/><defs><linearGradient id="gr61" x1="0%" x2="100%" y1="0%" y2="100%"><stop offset="0%" stop-color="rgb(148,152,172)"/><stop offset="100%" stop-color="rgb(167,171,188)"/></linearGradient></defs><polygon id="triangle36" points="244,232 265,314 102,218" style="fill: url(#gr61); stroke: rgb(0, 0, 0); stroke-width: 0;"/><defs><linearGradient id="gr62" x1="0%" x2="100%" y1="0%" y2="100%"><stop offset="0%" stop-color="rgb(152,156,174)"/><stop offset="100%" stop-color="rgb(156,160,179)"/></linearGradient></defs><polygon id="triangle36" points="25,383 207,443 102,218" style="fill: url(#gr62); stroke: rgb(0, 0, 0); stroke-width: 0;"/><defs><linearGradient id="gr63" x1="0%" x2="100%" y1="0%" y2="100%"><stop offset="0%" stop-color="rgb(166,171,186)"/><stop offset="100%" stop-color="rgb(163,167,184)"/></linearGradient></defs><polygon id="triangle36" points="25,383 34,135 102,218" style="fill: url(#gr63); stroke: rgb(0, 0, 0); stroke-width: 0;"/><defs><linearGradient id="gr64" x1="0%" x2="100%" y1="0%" y2="100%"><stop offset="0%" stop-color="rgb(152,156,175)"/><stop offset="100%" stop-color="rgb(161,165,182)"/></linearGradient></defs><polygon id="triangle36" points="34,135 172,110 102,218" style="fill: url(#gr64); stroke: rgb(0, 0, 0); stroke-width: 0;"/><defs><linearGradient id="gr65" x1="0%" x2="100%" y1="0%" y2="100%"><stop offset="0%" stop-color="rgb(158,162,180)"/><stop offset="100%" stop-color="rgb(165,170,186)"/></linearGradient></defs><polygon id="triangle36" points="172,110 330,-1 6,4" style="fill: url(#gr65); stroke: rgb(0, 0, 0); stroke-width: 0;"/><defs><linearGradient id="gr66" x1="0%" x2="100%" y1="0%" y2="100%"><stop offset="0%" stop-color="rgb(173,178,193)"/><stop offset="100%" stop-color="rgb(165,169,186)"/></linearGradient></defs><polygon id="triangle36" points="2,43 172,110 6,4" style="fill: url(#gr66); stroke: rgb(0, 0, 0); stroke-width: 0;"/><defs><linearGradient id="gr67" x1="0%" x2="100%" y1="0%" y2="100%"><stop offset="0%" stop-color="rgb(148,152,170)"/><stop offset="100%" stop-color="rgb(127,133,154)"/></linearGradient></defs><polygon id="triangle36" points="1018,305 1060,246 1119,317" style="fill: url(#gr67); stroke: rgb(0, 0, 0); stroke-width: 0;"/><defs><linearGradient id="gr68" x1="0%" x2="100%" y1="0%" y2="100%"><stop offset="0%" stop-color="rgb(157,162,180)"/><stop offset="100%" stop-color="rgb(146,150,171)"/></linearGradient></defs><polygon id="triangle36" points="1018,305 1114,450 1119,317" style="fill: url(#gr68); stroke: rgb(0, 0, 0); stroke-width: 0;"/><defs><linearGradient id="gr69" x1="0%" x2="100%" y1="0%" y2="100%"><stop offset="0%" stop-color="rgb(130,136,157)"/><stop offset="100%" stop-color="rgb(144,148,168)"/></linearGradient></defs><polygon id="triangle36" points="1060,246 1144,66 1119,317" style="fill: url(#gr69); stroke: rgb(0, 0, 0); stroke-width: 0;"/><defs><linearGradient id="gr70" x1="0%" x2="100%" y1="0%" y2="100%"><stop offset="0%" stop-color="rgb(159,163,181)"/><stop offset="100%" stop-color="rgb(154,158,176)"/></linearGradient></defs><polygon id="triangle36" points="1114,450 1191,505 1119,317" style="fill: url(#gr70); stroke: rgb(0, 0, 0); stroke-width: 0;"/><defs><linearGradient id="gr71" x1="0%" x2="100%" y1="0%" y2="100%"><stop offset="0%" stop-color="rgb(136,139,160)"/><stop offset="100%" stop-color="rgb(143,147,167)"/></linearGradient></defs><polygon id="triangle36" points="1144,66 1198,2 1119,317" style="fill: url(#gr71); stroke: rgb(0, 0, 0); stroke-width: 0;"/><defs><linearGradient id="gr72" x1="0%" x2="100%" y1="0%" y2="100%"><stop offset="0%" stop-color="rgb(136,140,161)"/><stop offset="100%" stop-color="rgb(140,145,165)"/></linearGradient></defs><polygon id="triangle36" points="1191,505 1198,2 1119,317" style="fill: url(#gr72); stroke: rgb(0, 0, 0); stroke-width: 0;"/></svg>