<svg xmlns="http://www.w3.org/2000/svg" width="2560" height="1440" version="1.1"><defs><linearGradient id="gr0" x1="0%" x2="100%" y1="0%" y2="100%"><stop offset="0%" stop-color="rgb(209,250,238)"/><stop offset="100%" stop-color="rgb(135,165,168)"/></linearGradient></defs><polygon id="triangle36" points="364,1341 403,1198 477,1406" style="fill: url(#gr0); stroke: rgb(0, 0, 0); stroke-width: 0;"/><defs><linearGradient id="gr1" x1="0%" x2="100%" y1="0%" y2="100%"><stop offset="0%" stop-color="rgb(115,158,165)"/><stop offset="100%" stop-color="rgb(98,138,156)"/></linearGradient></defs><polygon id="triangle36" points="643,557 1099,499 1012,374" style="fill: url(#gr1); stroke: rgb(0, 0, 0); stroke-width: 0;"/><defs><linearGradient id="gr2" x1="0%" x2="100%" y1="0%" y2="100%"><stop offset="0%" stop-color="rgb(191,240,221)"/><stop offset="100%" stop-color="rgb(195,238,226)"/></linearGradient></defs><polygon id="triangle36" points="2,1435 477,1406 301,1395" style="fill: url(#gr2); stroke: rgb(0, 0, 0); stroke-width: 0;"/><defs><linearGradient id="gr3" x1="0%" x2="100%" y1="0%" y2="100%"><stop offset="0%" stop-color="rgb(201,247,234)"/><stop offset="100%" stop-color="rgb(196,240,229)"/></linearGradient></defs><polygon id="triangle36" points="364,1341 477,1406 301,1395" style="fill: url(#gr3); stroke: rgb(0, 0, 0); stroke-width: 0;"/><defs><linearGradient id="gr4" x1="0%" x2="100%" y1="0%" y2="100%"><stop offset="0%" stop-color="rgb(202,249,228)"/><stop offset="100%" stop-color="rgb(138,168,164)"/></linearGradient></defs><polygon id="triangle36" points="2,1435 301,1395 284,1122" style="fill: url(#gr4); stroke: rgb(0, 0, 0); stroke-width: 0;"/><defs><linearGradient id="gr5" x1="0%" x2="100%" y1="0%" y2="100%"><stop offset="0%" stop-color="rgb(208,247,235)"/><stop offset="100%" stop-color="rgb(142,170,168)"/></linearGradient></defs><polygon id="triangle36" points="301,1395 364,1341 284,1122" style="fill: url(#gr5); stroke: rgb(0, 0, 0); stroke-width: 0;"/><defs><linearGradient id="gr6" x1="0%" x2="100%" y1="0%" y2="100%"><stop offset="0%" stop-color="rgb(106,134,143)"/><stop offset="100%" stop-color="rgb(2,12,38)"/></linearGradient></defs><polygon id="triangle36" points="364,1341 403,1198 284,1122" style="fill: url(#gr6); stroke: rgb(0, 0, 0); stroke-width: 0;"/><defs><linearGradient id="gr7" x1="0%" x2="100%" y1="0%" y2="100%"><stop offset="0%" stop-color="rgb(106,155,151)"/><stop offset="100%" stop-color="rgb(9,32,50)"/></linearGradient></defs><polygon id="triangle36" points="2,1435 141,278 242,792" style="fill: url(#gr7); stroke: rgb(0, 0, 0); stroke-width: 0;"/><defs><linearGradient id="gr8" x1="0%" x2="100%" y1="0%" y2="100%"><stop offset="0%" stop-color="rgb(95,124,127)"/><stop offset="100%" stop-color="rgb(1,4,25)"/></linearGradient></defs><polygon id="triangle36" points="2,1435 284,1122 242,792" style="fill: url(#gr8); stroke: rgb(0, 0, 0); stroke-width: 0;"/><defs><linearGradient id="gr9" x1="0%" x2="100%" y1="0%" y2="100%"><stop offset="0%" stop-color="rgb(69,118,136)"/><stop offset="100%" stop-color="rgb(51,107,127)"/></linearGradient></defs><polygon id="triangle36" points="1099,499 1451,453 1230,687" style="fill: url(#gr9); stroke: rgb(0, 0, 0); stroke-width: 0;"/><defs><linearGradient id="gr10" x1="0%" x2="100%" y1="0%" y2="100%"><stop offset="0%" stop-color="rgb(195,245,230)"/><stop offset="100%" stop-color="rgb(145,177,176)"/></linearGradient></defs><polygon id="triangle36" points="2054,1306 2085,1336 2322,1127" style="fill: url(#gr10); stroke: rgb(0, 0, 0); stroke-width: 0;"/><defs><linearGradient id="gr11" x1="0%" x2="100%" y1="0%" y2="100%"><stop offset="0%" stop-color="rgb(213,252,244)"/><stop offset="100%" stop-color="rgb(147,178,178)"/></linearGradient></defs><polygon id="triangle36" points="2085,1336 2322,1127 2240,1406" style="fill: url(#gr11); stroke: rgb(0, 0, 0); stroke-width: 0;"/><defs><linearGradient id="gr12" x1="0%" x2="100%" y1="0%" y2="100%"><stop offset="0%" stop-color="rgb(84,115,128)"/><stop offset="100%" stop-color="rgb(122,164,173)"/></linearGradient></defs><polygon id="triangle36" points="403,1198 477,1406 840,888" style="fill: url(#gr12); stroke: rgb(0, 0, 0); stroke-width: 0;"/><defs><linearGradient id="gr13" x1="0%" x2="100%" y1="0%" y2="100%"><stop offset="0%" stop-color="rgb(36,62,86)"/><stop offset="100%" stop-color="rgb(34,75,95)"/></linearGradient></defs><polygon id="triangle36" points="1811,516 1924,642 2004,428" style="fill: url(#gr13); stroke: rgb(0, 0, 0); stroke-width: 0;"/><defs><linearGradient id="gr14" x1="0%" x2="100%" y1="0%" y2="100%"><stop offset="0%" stop-color="rgb(97,132,144)"/><stop offset="100%" stop-color="rgb(72,104,124)"/></linearGradient></defs><polygon id="triangle36" points="1924,642 1952,674 2046,690" style="fill: url(#gr14); stroke: rgb(0, 0, 0); stroke-width: 0;"/><defs><linearGradient id="gr15" x1="0%" x2="100%" y1="0%" y2="100%"><stop offset="0%" stop-color="rgb(4,23,49)"/><stop offset="100%" stop-color="rgb(32,63,87)"/></linearGradient></defs><polygon id="triangle36" points="1924,642 2004,428 2046,690" style="fill: url(#gr15); stroke: rgb(0, 0, 0); stroke-width: 0;"/><defs><linearGradient id="gr16" x1="0%" x2="100%" y1="0%" y2="100%"><stop offset="0%" stop-color="rgb(55,103,126)"/><stop offset="100%" stop-color="rgb(34,87,111)"/></linearGradient></defs><polygon id="triangle36" points="1099,499 1230,687 1032,774" style="fill: url(#gr16); stroke: rgb(0, 0, 0); stroke-width: 0;"/><defs><linearGradient id="gr17" x1="0%" x2="100%" y1="0%" y2="100%"><stop offset="0%" stop-color="rgb(41,101,123)"/><stop offset="100%" stop-color="rgb(59,125,139)"/></linearGradient></defs><polygon id="triangle36" points="1230,687 1244,1003 1032,774" style="fill: url(#gr17); stroke: rgb(0, 0, 0); stroke-width: 0;"/><defs><linearGradient id="gr18" x1="0%" x2="100%" y1="0%" y2="100%"><stop offset="0%" stop-color="rgb(31,71,97)"/><stop offset="100%" stop-color="rgb(43,88,115)"/></linearGradient></defs><polygon id="triangle36" points="643,557 1099,499 1032,774" style="fill: url(#gr18); stroke: rgb(0, 0, 0); stroke-width: 0;"/><defs><linearGradient id="gr19" x1="0%" x2="100%" y1="0%" y2="100%"><stop offset="0%" stop-color="rgb(4,38,50)"/><stop offset="100%" stop-color="rgb(2,21,39)"/></linearGradient></defs><polygon id="triangle36" points="141,278 242,792 500,453" style="fill: url(#gr19); stroke: rgb(0, 0, 0); stroke-width: 0;"/><defs><linearGradient id="gr20" x1="0%" x2="100%" y1="0%" y2="100%"><stop offset="0%" stop-color="rgb(21,31,55)"/><stop offset="100%" stop-color="rgb(31,60,85)"/></linearGradient></defs><polygon id="triangle36" points="242,792 643,557 500,453" style="fill: url(#gr20); stroke: rgb(0, 0, 0); stroke-width: 0;"/><defs><linearGradient id="gr21" x1="0%" x2="100%" y1="0%" y2="100%"><stop offset="0%" stop-color="rgb(16,46,72)"/><stop offset="100%" stop-color="rgb(33,75,98)"/></linearGradient></defs><polygon id="triangle36" points="1952,674 2046,690 2062,774" style="fill: url(#gr21); stroke: rgb(0, 0, 0); stroke-width: 0;"/><defs><linearGradient id="gr22" x1="0%" x2="100%" y1="0%" y2="100%"><stop offset="0%" stop-color="rgb(27,60,87)"/><stop offset="100%" stop-color="rgb(55,94,114)"/></linearGradient></defs><polygon id="triangle36" points="2046,690 2149,784 2062,774" style="fill: url(#gr22); stroke: rgb(0, 0, 0); stroke-width: 0;"/><defs><linearGradient id="gr23" x1="0%" x2="100%" y1="0%" y2="100%"><stop offset="0%" stop-color="rgb(74,114,129)"/><stop offset="100%" stop-color="rgb(73,101,123)"/></linearGradient></defs><polygon id="triangle36" points="2004,428 2046,690 2375,648" style="fill: url(#gr23); stroke: rgb(0, 0, 0); stroke-width: 0;"/><defs><linearGradient id="gr24" x1="0%" x2="100%" y1="0%" y2="100%"><stop offset="0%" stop-color="rgb(22,48,75)"/><stop offset="100%" stop-color="rgb(74,98,120)"/></linearGradient></defs><polygon id="triangle36" points="2046,690 2149,784 2375,648" style="fill: url(#gr24); stroke: rgb(0, 0, 0); stroke-width: 0;"/><defs><linearGradient id="gr25" x1="0%" x2="100%" y1="0%" y2="100%"><stop offset="0%" stop-color="rgb(4,15,35)"/><stop offset="100%" stop-color="rgb(4,13,35)"/></linearGradient></defs><polygon id="triangle36" points="242,792 284,1122 409,1033" style="fill: url(#gr25); stroke: rgb(0, 0, 0); stroke-width: 0;"/><defs><linearGradient id="gr26" x1="0%" x2="100%" y1="0%" y2="100%"><stop offset="0%" stop-color="rgb(17,39,56)"/><stop offset="100%" stop-color="rgb(28,59,76)"/></linearGradient></defs><polygon id="triangle36" points="242,792 643,557 409,1033" style="fill: url(#gr26); stroke: rgb(0, 0, 0); stroke-width: 0;"/><defs><linearGradient id="gr27" x1="0%" x2="100%" y1="0%" y2="100%"><stop offset="0%" stop-color="rgb(3,11,34)"/><stop offset="100%" stop-color="rgb(3,9,36)"/></linearGradient></defs><polygon id="triangle36" points="284,1122 403,1198 409,1033" style="fill: url(#gr27); stroke: rgb(0, 0, 0); stroke-width: 0;"/><defs><linearGradient id="gr28" x1="0%" x2="100%" y1="0%" y2="100%"><stop offset="0%" stop-color="rgb(1,12,37)"/><stop offset="100%" stop-color="rgb(2,17,46)"/></linearGradient></defs><polygon id="triangle36" points="403,1198 840,888 409,1033" style="fill: url(#gr28); stroke: rgb(0, 0, 0); stroke-width: 0;"/><defs><linearGradient id="gr29" x1="0%" x2="100%" y1="0%" y2="100%"><stop offset="0%" stop-color="rgb(25,67,85)"/><stop offset="100%" stop-color="rgb(3,26,57)"/></linearGradient></defs><polygon id="triangle36" points="643,557 840,888 409,1033" style="fill: url(#gr29); stroke: rgb(0, 0, 0); stroke-width: 0;"/><defs><linearGradient id="gr30" x1="0%" x2="100%" y1="0%" y2="100%"><stop offset="0%" stop-color="rgb(40,90,104)"/><stop offset="100%" stop-color="rgb(24,76,98)"/></linearGradient></defs><polygon id="triangle36" points="643,557 1032,774 910,858" style="fill: url(#gr30); stroke: rgb(0, 0, 0); stroke-width: 0;"/><defs><linearGradient id="gr31" x1="0%" x2="100%" y1="0%" y2="100%"><stop offset="0%" stop-color="rgb(45,102,113)"/><stop offset="100%" stop-color="rgb(17,67,93)"/></linearGradient></defs><polygon id="triangle36" points="643,557 840,888 910,858" style="fill: url(#gr31); stroke: rgb(0, 0, 0); stroke-width: 0;"/><defs><linearGradient id="gr32" x1="0%" x2="100%" y1="0%" y2="100%"><stop offset="0%" stop-color="rgb(10,51,82)"/><stop offset="100%" stop-color="rgb(29,87,107)"/></linearGradient></defs><polygon id="triangle36" points="840,888 981,933 910,858" style="fill: url(#gr32); stroke: rgb(0, 0, 0); stroke-width: 0;"/><defs><linearGradient id="gr33" x1="0%" x2="100%" y1="0%" y2="100%"><stop offset="0%" stop-color="rgb(65,137,151)"/><stop offset="100%" stop-color="rgb(35,90,112)"/></linearGradient></defs><polygon id="triangle36" points="981,933 1032,774 910,858" style="fill: url(#gr33); stroke: rgb(0, 0, 0); stroke-width: 0;"/><defs><linearGradient id="gr34" x1="0%" x2="100%" y1="0%" y2="100%"><stop offset="0%" stop-color="rgb(69,108,132)"/><stop offset="100%" stop-color="rgb(25,44,67)"/></linearGradient></defs><polygon id="triangle36" points="1617,433 1811,516 1689,327" style="fill: url(#gr34); stroke: rgb(0, 0, 0); stroke-width: 0;"/><defs><linearGradient id="gr35" x1="0%" x2="100%" y1="0%" y2="100%"><stop offset="0%" stop-color="rgb(26,42,69)"/><stop offset="100%" stop-color="rgb(27,50,69)"/></linearGradient></defs><polygon id="triangle36" points="1811,516 2004,428 1689,327" style="fill: url(#gr35); stroke: rgb(0, 0, 0); stroke-width: 0;"/><defs><linearGradient id="gr36" x1="0%" x2="100%" y1="0%" y2="100%"><stop offset="0%" stop-color="rgb(43,103,123)"/><stop offset="100%" stop-color="rgb(72,142,153)"/></linearGradient></defs><polygon id="triangle36" points="1032,774 1244,1003 1025,967" style="fill: url(#gr36); stroke: rgb(0, 0, 0); stroke-width: 0;"/><defs><linearGradient id="gr37" x1="0%" x2="100%" y1="0%" y2="100%"><stop offset="0%" stop-color="rgb(135,187,184)"/><stop offset="100%" stop-color="rgb(50,106,122)"/></linearGradient></defs><polygon id="triangle36" points="477,1406 840,888 1025,967" style="fill: url(#gr37); stroke: rgb(0, 0, 0); stroke-width: 0;"/><defs><linearGradient id="gr38" x1="0%" x2="100%" y1="0%" y2="100%"><stop offset="0%" stop-color="rgb(64,115,134)"/><stop offset="100%" stop-color="rgb(86,158,164)"/></linearGradient></defs><polygon id="triangle36" points="840,888 981,933 1025,967" style="fill: url(#gr38); stroke: rgb(0, 0, 0); stroke-width: 0;"/><defs><linearGradient id="gr39" x1="0%" x2="100%" y1="0%" y2="100%"><stop offset="0%" stop-color="rgb(77,151,159)"/><stop offset="100%" stop-color="rgb(65,128,140)"/></linearGradient></defs><polygon id="triangle36" points="981,933 1032,774 1025,967" style="fill: url(#gr39); stroke: rgb(0, 0, 0); stroke-width: 0;"/><defs><linearGradient id="gr40" x1="0%" x2="100%" y1="0%" y2="100%"><stop offset="0%" stop-color="rgb(41,61,76)"/><stop offset="100%" stop-color="rgb(51,89,110)"/></linearGradient></defs><polygon id="triangle36" points="1689,327 2004,428 1886,111" style="fill: url(#gr40); stroke: rgb(0, 0, 0); stroke-width: 0;"/><defs><linearGradient id="gr41" x1="0%" x2="100%" y1="0%" y2="100%"><stop offset="0%" stop-color="rgb(19,46,81)"/><stop offset="100%" stop-color="rgb(11,26,46)"/></linearGradient></defs><polygon id="triangle36" points="1861,66 2226,165 1886,111" style="fill: url(#gr41); stroke: rgb(0, 0, 0); stroke-width: 0;"/><defs><linearGradient id="gr42" x1="0%" x2="100%" y1="0%" y2="100%"><stop offset="0%" stop-color="rgb(39,67,89)"/><stop offset="100%" stop-color="rgb(5,14,34)"/></linearGradient></defs><polygon id="triangle36" points="2004,428 2226,165 1886,111" style="fill: url(#gr42); stroke: rgb(0, 0, 0); stroke-width: 0;"/><defs><linearGradient id="gr43" x1="0%" x2="100%" y1="0%" y2="100%"><stop offset="0%" stop-color="rgb(204,249,239)"/><stop offset="100%" stop-color="rgb(146,177,176)"/></linearGradient></defs><polygon id="triangle36" points="2240,1406 2322,1127 2293,1393" style="fill: url(#gr43); stroke: rgb(0, 0, 0); stroke-width: 0;"/><defs><linearGradient id="gr44" x1="0%" x2="100%" y1="0%" y2="100%"><stop offset="0%" stop-color="rgb(201,247,230)"/><stop offset="100%" stop-color="rgb(209,251,236)"/></linearGradient></defs><polygon id="triangle36" points="2054,1306 2085,1336 1817,1291" style="fill: url(#gr44); stroke: rgb(0, 0, 0); stroke-width: 0;"/><defs><linearGradient id="gr45" x1="0%" x2="100%" y1="0%" y2="100%"><stop offset="0%" stop-color="rgb(66,129,143)"/><stop offset="100%" stop-color="rgb(129,197,193)"/></linearGradient></defs><polygon id="triangle36" points="1230,687 1244,1003 1287,985" style="fill: url(#gr45); stroke: rgb(0, 0, 0); stroke-width: 0;"/><defs><linearGradient id="gr46" x1="0%" x2="100%" y1="0%" y2="100%"><stop offset="0%" stop-color="rgb(75,138,148)"/><stop offset="100%" stop-color="rgb(124,185,184)"/></linearGradient></defs><polygon id="triangle36" points="1230,687 1287,985 1642,787" style="fill: url(#gr46); stroke: rgb(0, 0, 0); stroke-width: 0;"/><defs><linearGradient id="gr47" x1="0%" x2="100%" y1="0%" y2="100%"><stop offset="0%" stop-color="rgb(70,126,141)"/><stop offset="100%" stop-color="rgb(76,135,148)"/></linearGradient></defs><polygon id="triangle36" points="1230,687 1451,453 1642,787" style="fill: url(#gr47); stroke: rgb(0, 0, 0); stroke-width: 0;"/><defs><linearGradient id="gr48" x1="0%" x2="100%" y1="0%" y2="100%"><stop offset="0%" stop-color="rgb(150,209,201)"/><stop offset="100%" stop-color="rgb(117,173,176)"/></linearGradient></defs><polygon id="triangle36" points="1287,985 1637,1220 1642,787" style="fill: url(#gr48); stroke: rgb(0, 0, 0); stroke-width: 0;"/><defs><linearGradient id="gr49" x1="0%" x2="100%" y1="0%" y2="100%"><stop offset="0%" stop-color="rgb(70,126,144)"/><stop offset="100%" stop-color="rgb(83,132,152)"/></linearGradient></defs><polygon id="triangle36" points="1451,453 1617,433 1642,787" style="fill: url(#gr49); stroke: rgb(0, 0, 0); stroke-width: 0;"/><defs><linearGradient id="gr50" x1="0%" x2="100%" y1="0%" y2="100%"><stop offset="0%" stop-color="rgb(82,123,147)"/><stop offset="100%" stop-color="rgb(53,93,118)"/></linearGradient></defs><polygon id="triangle36" points="1617,433 1811,516 1642,787" style="fill: url(#gr50); stroke: rgb(0, 0, 0); stroke-width: 0;"/><defs><linearGradient id="gr51" x1="0%" x2="100%" y1="0%" y2="100%"><stop offset="0%" stop-color="rgb(32,62,90)"/><stop offset="100%" stop-color="rgb(29,75,99)"/></linearGradient></defs><polygon id="triangle36" points="1811,516 1924,642 1642,787" style="fill: url(#gr51); stroke: rgb(0, 0, 0); stroke-width: 0;"/><defs><linearGradient id="gr52" x1="0%" x2="100%" y1="0%" y2="100%"><stop offset="0%" stop-color="rgb(32,75,95)"/><stop offset="100%" stop-color="rgb(42,87,108)"/></linearGradient></defs><polygon id="triangle36" points="1924,642 1952,674 1642,787" style="fill: url(#gr52); stroke: rgb(0, 0, 0); stroke-width: 0;"/><defs><linearGradient id="gr53" x1="0%" x2="100%" y1="0%" y2="100%"><stop offset="0%" stop-color="rgb(10,44,71)"/><stop offset="100%" stop-color="rgb(42,94,114)"/></linearGradient></defs><polygon id="triangle36" points="1952,674 2062,774 1642,787" style="fill: url(#gr53); stroke: rgb(0, 0, 0); stroke-width: 0;"/><defs><linearGradient id="gr54" x1="0%" x2="100%" y1="0%" y2="100%"><stop offset="0%" stop-color="rgb(42,76,95)"/><stop offset="100%" stop-color="rgb(41,57,73)"/></linearGradient></defs><polygon id="triangle36" points="2149,784 2375,648 2366,695" style="fill: url(#gr54); stroke: rgb(0, 0, 0); stroke-width: 0;"/><defs><linearGradient id="gr55" x1="0%" x2="100%" y1="0%" y2="100%"><stop offset="0%" stop-color="rgb(74,91,109)"/><stop offset="100%" stop-color="rgb(11,18,30)"/></linearGradient></defs><polygon id="triangle36" points="2375,648 2483,787 2366,695" style="fill: url(#gr55); stroke: rgb(0, 0, 0); stroke-width: 0;"/><defs><linearGradient id="gr56" x1="0%" x2="100%" y1="0%" y2="100%"><stop offset="0%" stop-color="rgb(27,54,90)"/><stop offset="100%" stop-color="rgb(82,110,130)"/></linearGradient></defs><polygon id="triangle36" points="1861,66 1886,111 1763,60" style="fill: url(#gr56); stroke: rgb(0, 0, 0); stroke-width: 0;"/><defs><linearGradient id="gr57" x1="0%" x2="100%" y1="0%" y2="100%"><stop offset="0%" stop-color="rgb(40,79,97)"/><stop offset="100%" stop-color="rgb(36,68,81)"/></linearGradient></defs><polygon id="triangle36" points="1131,279 1451,453 1647,270" style="fill: url(#gr57); stroke: rgb(0, 0, 0); stroke-width: 0;"/><defs><linearGradient id="gr58" x1="0%" x2="100%" y1="0%" y2="100%"><stop offset="0%" stop-color="rgb(45,98,122)"/><stop offset="100%" stop-color="rgb(47,74,93)"/></linearGradient></defs><polygon id="triangle36" points="1451,453 1617,433 1647,270" style="fill: url(#gr58); stroke: rgb(0, 0, 0); stroke-width: 0;"/><defs><linearGradient id="gr59" x1="0%" x2="100%" y1="0%" y2="100%"><stop offset="0%" stop-color="rgb(79,124,144)"/><stop offset="100%" stop-color="rgb(19,36,49)"/></linearGradient></defs><polygon id="triangle36" points="1617,433 1689,327 1647,270" style="fill: url(#gr59); stroke: rgb(0, 0, 0); stroke-width: 0;"/><defs><linearGradient id="gr60" x1="0%" x2="100%" y1="0%" y2="100%"><stop offset="0%" stop-color="rgb(88,114,120)"/><stop offset="100%" stop-color="rgb(60,84,96)"/></linearGradient></defs><polygon id="triangle36" points="1689,327 1886,111 1647,270" style="fill: url(#gr60); stroke: rgb(0, 0, 0); stroke-width: 0;"/><defs><linearGradient id="gr61" x1="0%" x2="100%" y1="0%" y2="100%"><stop offset="0%" stop-color="rgb(101,120,133)"/><stop offset="100%" stop-color="rgb(4,12,33)"/></linearGradient></defs><polygon id="triangle36" points="1763,60 1886,111 1647,270" style="fill: url(#gr61); stroke: rgb(0, 0, 0); stroke-width: 0;"/><defs><linearGradient id="gr62" x1="0%" x2="100%" y1="0%" y2="100%"><stop offset="0%" stop-color="rgb(32,75,90)"/><stop offset="100%" stop-color="rgb(33,63,83)"/></linearGradient></defs><polygon id="triangle36" points="2062,774 2149,784 2235,952" style="fill: url(#gr62); stroke: rgb(0, 0, 0); stroke-width: 0;"/><defs><linearGradient id="gr63" x1="0%" x2="100%" y1="0%" y2="100%"><stop offset="0%" stop-color="rgb(42,66,91)"/><stop offset="100%" stop-color="rgb(4,12,33)"/></linearGradient></defs><polygon id="triangle36" points="2149,784 2366,695 2235,952" style="fill: url(#gr63); stroke: rgb(0, 0, 0); stroke-width: 0;"/><defs><linearGradient id="gr64" x1="0%" x2="100%" y1="0%" y2="100%"><stop offset="0%" stop-color="rgb(50,51,61)"/><stop offset="100%" stop-color="rgb(36,45,58)"/></linearGradient></defs><polygon id="triangle36" points="2366,695 2483,787 2235,952" style="fill: url(#gr64); stroke: rgb(0, 0, 0); stroke-width: 0;"/><defs><linearGradient id="gr65" x1="0%" x2="100%" y1="0%" y2="100%"><stop offset="0%" stop-color="rgb(32,68,99)"/><stop offset="100%" stop-color="rgb(55,102,125)"/></linearGradient></defs><polygon id="triangle36" points="1012,374 1099,499 1109,385" style="fill: url(#gr65); stroke: rgb(0, 0, 0); stroke-width: 0;"/><defs><linearGradient id="gr66" x1="0%" x2="100%" y1="0%" y2="100%"><stop offset="0%" stop-color="rgb(20,55,84)"/><stop offset="100%" stop-color="rgb(33,77,99)"/></linearGradient></defs><polygon id="triangle36" points="1012,374 1131,279 1109,385" style="fill: url(#gr66); stroke: rgb(0, 0, 0); stroke-width: 0;"/><defs><linearGradient id="gr67" x1="0%" x2="100%" y1="0%" y2="100%"><stop offset="0%" stop-color="rgb(57,106,125)"/><stop offset="100%" stop-color="rgb(51,105,124)"/></linearGradient></defs><polygon id="triangle36" points="1099,499 1451,453 1109,385" style="fill: url(#gr67); stroke: rgb(0, 0, 0); stroke-width: 0;"/><defs><linearGradient id="gr68" x1="0%" x2="100%" y1="0%" y2="100%"><stop offset="0%" stop-color="rgb(53,100,118)"/><stop offset="100%" stop-color="rgb(62,118,135)"/></linearGradient></defs><polygon id="triangle36" points="1131,279 1451,453 1109,385" style="fill: url(#gr68); stroke: rgb(0, 0, 0); stroke-width: 0;"/><defs><linearGradient id="gr69" x1="0%" x2="100%" y1="0%" y2="100%"><stop offset="0%" stop-color="rgb(207,250,241)"/><stop offset="100%" stop-color="rgb(148,184,178)"/></linearGradient></defs><polygon id="triangle36" points="2240,1406 2293,1393 2461,1427" style="fill: url(#gr69); stroke: rgb(0, 0, 0); stroke-width: 0;"/><defs><linearGradient id="gr70" x1="0%" x2="100%" y1="0%" y2="100%"><stop offset="0%" stop-color="rgb(215,247,242)"/><stop offset="100%" stop-color="rgb(95,110,118)"/></linearGradient></defs><polygon id="triangle36" points="2293,1393 2322,1127 2461,1427" style="fill: url(#gr70); stroke: rgb(0, 0, 0); stroke-width: 0;"/><defs><linearGradient id="gr71" x1="0%" x2="100%" y1="0%" y2="100%"><stop offset="0%" stop-color="rgb(14,16,27)"/><stop offset="100%" stop-color="rgb(18,27,32)"/></linearGradient></defs><polygon id="triangle36" points="2322,1127 2555,1416 2461,1427" style="fill: url(#gr71); stroke: rgb(0, 0, 0); stroke-width: 0;"/><defs><linearGradient id="gr72" x1="0%" x2="100%" y1="0%" y2="100%"><stop offset="0%" stop-color="rgb(35,62,81)"/><stop offset="100%" stop-color="rgb(3,12,24)"/></linearGradient></defs><polygon id="triangle36" points="2004,428 2226,165 2387,197" style="fill: url(#gr72); stroke: rgb(0, 0, 0); stroke-width: 0;"/><defs><linearGradient id="gr73" x1="0%" x2="100%" y1="0%" y2="100%"><stop offset="0%" stop-color="rgb(36,62,81)"/><stop offset="100%" stop-color="rgb(42,58,77)"/></linearGradient></defs><polygon id="triangle36" points="2004,428 2375,648 2387,197" style="fill: url(#gr73); stroke: rgb(0, 0, 0); stroke-width: 0;"/><defs><linearGradient id="gr74" x1="0%" x2="100%" y1="0%" y2="100%"><stop offset="0%" stop-color="rgb(21,35,47)"/><stop offset="100%" stop-color="rgb(24,42,58)"/></linearGradient></defs><polygon id="triangle36" points="2226,165 2541,32 2387,197" style="fill: url(#gr74); stroke: rgb(0, 0, 0); stroke-width: 0;"/><defs><linearGradient id="gr75" x1="0%" x2="100%" y1="0%" y2="100%"><stop offset="0%" stop-color="rgb(20,52,79)"/><stop offset="100%" stop-color="rgb(16,46,73)"/></linearGradient></defs><polygon id="triangle36" points="1012,374 1131,279 942,136" style="fill: url(#gr75); stroke: rgb(0, 0, 0); stroke-width: 0;"/><defs><linearGradient id="gr76" x1="0%" x2="100%" y1="0%" y2="100%"><stop offset="0%" stop-color="rgb(10,30,55)"/><stop offset="100%" stop-color="rgb(47,79,100)"/></linearGradient></defs><polygon id="triangle36" points="141,278 500,453 269,70" style="fill: url(#gr76); stroke: rgb(0, 0, 0); stroke-width: 0;"/><defs><linearGradient id="gr77" x1="0%" x2="100%" y1="0%" y2="100%"><stop offset="0%" stop-color="rgb(51,83,96)"/><stop offset="100%" stop-color="rgb(91,142,144)"/></linearGradient></defs><polygon id="triangle36" points="141,278 269,70 3,2" style="fill: url(#gr77); stroke: rgb(0, 0, 0); stroke-width: 0;"/><defs><linearGradient id="gr78" x1="0%" x2="100%" y1="0%" y2="100%"><stop offset="0%" stop-color="rgb(129,182,173)"/><stop offset="100%" stop-color="rgb(42,84,95)"/></linearGradient></defs><polygon id="triangle36" points="2,1435 141,278 3,2" style="fill: url(#gr78); stroke: rgb(0, 0, 0); stroke-width: 0;"/><defs><linearGradient id="gr79" x1="0%" x2="100%" y1="0%" y2="100%"><stop offset="0%" stop-color="rgb(88,161,163)"/><stop offset="100%" stop-color="rgb(141,198,192)"/></linearGradient></defs><polygon id="triangle36" points="1244,1003 1287,985 1322,1349" style="fill: url(#gr79); stroke: rgb(0, 0, 0); stroke-width: 0;"/><defs><linearGradient id="gr80" x1="0%" x2="100%" y1="0%" y2="100%"><stop offset="0%" stop-color="rgb(58,96,116)"/><stop offset="100%" stop-color="rgb(50,71,90)"/></linearGradient></defs><polygon id="triangle36" points="1131,279 1647,270 1682,6" style="fill: url(#gr80); stroke: rgb(0, 0, 0); stroke-width: 0;"/><defs><linearGradient id="gr81" x1="0%" x2="100%" y1="0%" y2="100%"><stop offset="0%" stop-color="rgb(24,52,66)"/><stop offset="100%" stop-color="rgb(104,146,162)"/></linearGradient></defs><polygon id="triangle36" points="1647,270 1763,60 1682,6" style="fill: url(#gr81); stroke: rgb(0, 0, 0); stroke-width: 0;"/><defs><linearGradient id="gr82" x1="0%" x2="100%" y1="0%" y2="100%"><stop offset="0%" stop-color="rgb(171,219,220)"/><stop offset="100%" stop-color="rgb(74,115,139)"/></linearGradient></defs><polygon id="triangle36" points="1763,60 1861,66 1682,6" style="fill: url(#gr82); stroke: rgb(0, 0, 0); stroke-width: 0;"/><defs><linearGradient id="gr83" x1="0%" x2="100%" y1="0%" y2="100%"><stop offset="0%" stop-color="rgb(6,22,57)"/><stop offset="100%" stop-color="rgb(36,67,93)"/></linearGradient></defs><polygon id="triangle36" points="942,136 1131,279 1682,6" style="fill: url(#gr83); stroke: rgb(0, 0, 0); stroke-width: 0;"/><defs><linearGradient id="gr84" x1="0%" x2="100%" y1="0%" y2="100%"><stop offset="0%" stop-color="rgb(28,66,89)"/><stop offset="100%" stop-color="rgb(50,102,115)"/></linearGradient></defs><polygon id="triangle36" points="500,453 643,557 674,251" style="fill: url(#gr84); stroke: rgb(0, 0, 0); stroke-width: 0;"/><defs><linearGradient id="gr85" x1="0%" x2="100%" y1="0%" y2="100%"><stop offset="0%" stop-color="rgb(38,83,100)"/><stop offset="100%" stop-color="rgb(37,77,104)"/></linearGradient></defs><polygon id="triangle36" points="643,557 1012,374 674,251" style="fill: url(#gr85); stroke: rgb(0, 0, 0); stroke-width: 0;"/><defs><linearGradient id="gr86" x1="0%" x2="100%" y1="0%" y2="100%"><stop offset="0%" stop-color="rgb(17,47,78)"/><stop offset="100%" stop-color="rgb(37,79,104)"/></linearGradient></defs><polygon id="triangle36" points="942,136 1012,374 674,251" style="fill: url(#gr86); stroke: rgb(0, 0, 0); stroke-width: 0;"/><defs><linearGradient id="gr87" x1="0%" x2="100%" y1="0%" y2="100%"><stop offset="0%" stop-color="rgb(46,80,94)"/><stop offset="100%" stop-color="rgb(48,76,103)"/></linearGradient></defs><polygon id="triangle36" points="3,2 1682,6 837,43" style="fill: url(#gr87); stroke: rgb(0, 0, 0); stroke-width: 0;"/><defs><linearGradient id="gr88" x1="0%" x2="100%" y1="0%" y2="100%"><stop offset="0%" stop-color="rgb(27,69,91)"/><stop offset="100%" stop-color="rgb(16,44,75)"/></linearGradient></defs><polygon id="triangle36" points="674,251 942,136 837,43" style="fill: url(#gr88); stroke: rgb(0, 0, 0); stroke-width: 0;"/><defs><linearGradient id="gr89" x1="0%" x2="100%" y1="0%" y2="100%"><stop offset="0%" stop-color="rgb(20,42,74)"/><stop offset="100%" stop-color="rgb(45,77,105)"/></linearGradient></defs><polygon id="triangle36" points="942,136 1682,6 837,43" style="fill: url(#gr89); stroke: rgb(0, 0, 0); stroke-width: 0;"/><defs><linearGradient id="gr90" x1="0%" x2="100%" y1="0%" y2="100%"><stop offset="0%" stop-color="rgb(66,105,123)"/><stop offset="100%" stop-color="rgb(4,16,50)"/></linearGradient></defs><polygon id="triangle36" points="269,70 500,453 579,77" style="fill: url(#gr90); stroke: rgb(0, 0, 0); stroke-width: 0;"/><defs><linearGradient id="gr91" x1="0%" x2="100%" y1="0%" y2="100%"><stop offset="0%" stop-color="rgb(46,99,104)"/><stop offset="100%" stop-color="rgb(56,98,107)"/></linearGradient></defs><polygon id="triangle36" points="3,2 269,70 579,77" style="fill: url(#gr91); stroke: rgb(0, 0, 0); stroke-width: 0;"/><defs><linearGradient id="gr92" x1="0%" x2="100%" y1="0%" y2="100%"><stop offset="0%" stop-color="rgb(27,58,79)"/><stop offset="100%" stop-color="rgb(13,30,61)"/></linearGradient></defs><polygon id="triangle36" points="3,2 837,43 579,77" style="fill: url(#gr92); stroke: rgb(0, 0, 0); stroke-width: 0;"/><defs><linearGradient id="gr93" x1="0%" x2="100%" y1="0%" y2="100%"><stop offset="0%" stop-color="rgb(16,29,60)"/><stop offset="100%" stop-color="rgb(27,48,72)"/></linearGradient></defs><polygon id="triangle36" points="500,453 674,251 579,77" style="fill: url(#gr93); stroke: rgb(0, 0, 0); stroke-width: 0;"/><defs><linearGradient id="gr94" x1="0%" x2="100%" y1="0%" y2="100%"><stop offset="0%" stop-color="rgb(30,69,94)"/><stop offset="100%" stop-color="rgb(17,39,68)"/></linearGradient></defs><polygon id="triangle36" points="674,251 837,43 579,77" style="fill: url(#gr94); stroke: rgb(0, 0, 0); stroke-width: 0;"/><defs><linearGradient id="gr95" x1="0%" x2="100%" y1="0%" y2="100%"><stop offset="0%" stop-color="rgb(202,249,232)"/><stop offset="100%" stop-color="rgb(135,178,173)"/></linearGradient></defs><polygon id="triangle36" points="1817,1291 2054,1306 1930,1182" style="fill: url(#gr95); stroke: rgb(0, 0, 0); stroke-width: 0;"/><defs><linearGradient id="gr96" x1="0%" x2="100%" y1="0%" y2="100%"><stop offset="0%" stop-color="rgb(138,196,192)"/><stop offset="100%" stop-color="rgb(119,178,180)"/></linearGradient></defs><polygon id="triangle36" points="1637,1220 1642,787 1813,1206" style="fill: url(#gr96); stroke: rgb(0, 0, 0); stroke-width: 0;"/><defs><linearGradient id="gr97" x1="0%" x2="100%" y1="0%" y2="100%"><stop offset="0%" stop-color="rgb(192,237,225)"/><stop offset="100%" stop-color="rgb(204,249,233)"/></linearGradient></defs><polygon id="triangle36" points="1637,1220 1817,1291 1813,1206" style="fill: url(#gr97); stroke: rgb(0, 0, 0); stroke-width: 0;"/><defs><linearGradient id="gr98" x1="0%" x2="100%" y1="0%" y2="100%"><stop offset="0%" stop-color="rgb(199,248,233)"/><stop offset="100%" stop-color="rgb(199,247,230)"/></linearGradient></defs><polygon id="triangle36" points="1813,1206 1817,1291 1834,1213" style="fill: url(#gr98); stroke: rgb(0, 0, 0); stroke-width: 0;"/><defs><linearGradient id="gr99" x1="0%" x2="100%" y1="0%" y2="100%"><stop offset="0%" stop-color="rgb(203,249,231)"/><stop offset="100%" stop-color="rgb(139,179,174)"/></linearGradient></defs><polygon id="triangle36" points="1817,1291 1930,1182 1834,1213" style="fill: url(#gr99); stroke: rgb(0, 0, 0); stroke-width: 0;"/><defs><linearGradient id="gr100" x1="0%" x2="100%" y1="0%" y2="100%"><stop offset="0%" stop-color="rgb(57,108,126)"/><stop offset="100%" stop-color="rgb(35,66,87)"/></linearGradient></defs><polygon id="triangle36" points="1642,787 2062,774 1962,1168" style="fill: url(#gr100); stroke: rgb(0, 0, 0); stroke-width: 0;"/><defs><linearGradient id="gr101" x1="0%" x2="100%" y1="0%" y2="100%"><stop offset="0%" stop-color="rgb(77,123,134)"/><stop offset="100%" stop-color="rgb(109,148,153)"/></linearGradient></defs><polygon id="triangle36" points="1930,1182 2054,1306 1962,1168" style="fill: url(#gr101); stroke: rgb(0, 0, 0); stroke-width: 0;"/><defs><linearGradient id="gr102" x1="0%" x2="100%" y1="0%" y2="100%"><stop offset="0%" stop-color="rgb(99,123,127)"/><stop offset="100%" stop-color="rgb(11,13,38)"/></linearGradient></defs><polygon id="triangle36" points="2054,1306 2322,1127 1962,1168" style="fill: url(#gr102); stroke: rgb(0, 0, 0); stroke-width: 0;"/><defs><linearGradient id="gr103" x1="0%" x2="100%" y1="0%" y2="100%"><stop offset="0%" stop-color="rgb(35,81,103)"/><stop offset="100%" stop-color="rgb(9,29,56)"/></linearGradient></defs><polygon id="triangle36" points="2062,774 2235,952 1962,1168" style="fill: url(#gr103); stroke: rgb(0, 0, 0); stroke-width: 0;"/><defs><linearGradient id="gr104" x1="0%" x2="100%" y1="0%" y2="100%"><stop offset="0%" stop-color="rgb(7,25,46)"/><stop offset="100%" stop-color="rgb(12,20,44)"/></linearGradient></defs><polygon id="triangle36" points="2235,952 2322,1127 1962,1168" style="fill: url(#gr104); stroke: rgb(0, 0, 0); stroke-width: 0;"/><defs><linearGradient id="gr105" x1="0%" x2="100%" y1="0%" y2="100%"><stop offset="0%" stop-color="rgb(144,186,192)"/><stop offset="100%" stop-color="rgb(154,188,187)"/></linearGradient></defs><polygon id="triangle36" points="1642,787 1813,1206 1930,1181" style="fill: url(#gr105); stroke: rgb(0, 0, 0); stroke-width: 0;"/><defs><linearGradient id="gr106" x1="0%" x2="100%" y1="0%" y2="100%"><stop offset="0%" stop-color="rgb(128,182,187)"/><stop offset="100%" stop-color="rgb(75,102,117)"/></linearGradient></defs><polygon id="triangle36" points="1642,787 1962,1168 1930,1181" style="fill: url(#gr106); stroke: rgb(0, 0, 0); stroke-width: 0;"/><defs><linearGradient id="gr107" x1="0%" x2="100%" y1="0%" y2="100%"><stop offset="0%" stop-color="rgb(150,206,202)"/><stop offset="100%" stop-color="rgb(108,156,159)"/></linearGradient></defs><polygon id="triangle36" points="1813,1206 1834,1213 1930,1181" style="fill: url(#gr107); stroke: rgb(0, 0, 0); stroke-width: 0;"/><defs><linearGradient id="gr108" x1="0%" x2="100%" y1="0%" y2="100%"><stop offset="0%" stop-color="rgb(101,138,147)"/><stop offset="100%" stop-color="rgb(16,46,71)"/></linearGradient></defs><polygon id="triangle36" points="1834,1213 1930,1182 1930,1181" style="fill: url(#gr108); stroke: rgb(0, 0, 0); stroke-width: 0;"/><defs><linearGradient id="gr109" x1="0%" x2="100%" y1="0%" y2="100%"><stop offset="0%" stop-color="rgb(13,35,57)"/><stop offset="100%" stop-color="rgb(13,29,55)"/></linearGradient></defs><polygon id="triangle36" points="1930,1182 1962,1168 1930,1181" style="fill: url(#gr109); stroke: rgb(0, 0, 0); stroke-width: 0;"/><defs><linearGradient id="gr110" x1="0%" x2="100%" y1="0%" y2="100%"><stop offset="0%" stop-color="rgb(196,247,227)"/><stop offset="100%" stop-color="rgb(179,228,213)"/></linearGradient></defs><polygon id="triangle36" points="1287,985 1322,1349 1587,1272" style="fill: url(#gr110); stroke: rgb(0, 0, 0); stroke-width: 0;"/><defs><linearGradient id="gr111" x1="0%" x2="100%" y1="0%" y2="100%"><stop offset="0%" stop-color="rgb(187,237,223)"/><stop offset="100%" stop-color="rgb(186,232,219)"/></linearGradient></defs><polygon id="triangle36" points="1287,985 1637,1220 1587,1272" style="fill: url(#gr111); stroke: rgb(0, 0, 0); stroke-width: 0;"/><defs><linearGradient id="gr112" x1="0%" x2="100%" y1="0%" y2="100%"><stop offset="0%" stop-color="rgb(146,195,192)"/><stop offset="100%" stop-color="rgb(151,202,196)"/></linearGradient></defs><polygon id="triangle36" points="1025,967 1244,1003 1198,1288" style="fill: url(#gr112); stroke: rgb(0, 0, 0); stroke-width: 0;"/><defs><linearGradient id="gr113" x1="0%" x2="100%" y1="0%" y2="100%"><stop offset="0%" stop-color="rgb(148,209,199)"/><stop offset="100%" stop-color="rgb(161,207,197)"/></linearGradient></defs><polygon id="triangle36" points="1244,1003 1322,1349 1198,1288" style="fill: url(#gr113); stroke: rgb(0, 0, 0); stroke-width: 0;"/><defs><linearGradient id="gr114" x1="0%" x2="100%" y1="0%" y2="100%"><stop offset="0%" stop-color="rgb(196,238,226)"/><stop offset="100%" stop-color="rgb(135,186,183)"/></linearGradient></defs><polygon id="triangle36" points="477,1406 1025,967 1198,1288" style="fill: url(#gr114); stroke: rgb(0, 0, 0); stroke-width: 0;"/><defs><linearGradient id="gr115" x1="0%" x2="100%" y1="0%" y2="100%"><stop offset="0%" stop-color="rgb(199,243,224)"/><stop offset="100%" stop-color="rgb(197,240,224)"/></linearGradient></defs><polygon id="triangle36" points="1587,1272 1637,1220 1731,1368" style="fill: url(#gr115); stroke: rgb(0, 0, 0); stroke-width: 0;"/><defs><linearGradient id="gr116" x1="0%" x2="100%" y1="0%" y2="100%"><stop offset="0%" stop-color="rgb(174,220,208)"/><stop offset="100%" stop-color="rgb(191,237,220)"/></linearGradient></defs><polygon id="triangle36" points="1637,1220 1817,1291 1731,1368" style="fill: url(#gr116); stroke: rgb(0, 0, 0); stroke-width: 0;"/><defs><linearGradient id="gr117" x1="0%" x2="100%" y1="0%" y2="100%"><stop offset="0%" stop-color="rgb(200,247,229)"/><stop offset="100%" stop-color="rgb(202,247,233)"/></linearGradient></defs><polygon id="triangle36" points="1817,1291 2085,1336 1731,1368" style="fill: url(#gr117); stroke: rgb(0, 0, 0); stroke-width: 0;"/><defs><linearGradient id="gr118" x1="0%" x2="100%" y1="0%" y2="100%"><stop offset="0%" stop-color="rgb(207,249,237)"/><stop offset="100%" stop-color="rgb(202,247,234)"/></linearGradient></defs><polygon id="triangle36" points="2085,1336 2240,1406 1731,1368" style="fill: url(#gr118); stroke: rgb(0, 0, 0); stroke-width: 0;"/><defs><linearGradient id="gr119" x1="0%" x2="100%" y1="0%" y2="100%"><stop offset="0%" stop-color="rgb(163,205,194)"/><stop offset="100%" stop-color="rgb(170,217,206)"/></linearGradient></defs><polygon id="triangle36" points="1198,1288 1322,1349 1306,1435" style="fill: url(#gr119); stroke: rgb(0, 0, 0); stroke-width: 0;"/><defs><linearGradient id="gr120" x1="0%" x2="100%" y1="0%" y2="100%"><stop offset="0%" stop-color="rgb(158,207,200)"/><stop offset="100%" stop-color="rgb(181,227,215)"/></linearGradient></defs><polygon id="triangle36" points="1322,1349 1587,1272 1306,1435" style="fill: url(#gr120); stroke: rgb(0, 0, 0); stroke-width: 0;"/><defs><linearGradient id="gr121" x1="0%" x2="100%" y1="0%" y2="100%"><stop offset="0%" stop-color="rgb(186,236,219)"/><stop offset="100%" stop-color="rgb(185,233,220)"/></linearGradient></defs><polygon id="triangle36" points="1587,1272 1731,1368 1306,1435" style="fill: url(#gr121); stroke: rgb(0, 0, 0); stroke-width: 0;"/><defs><linearGradient id="gr122" x1="0%" x2="100%" y1="0%" y2="100%"><stop offset="0%" stop-color="rgb(203,247,231)"/><stop offset="100%" stop-color="rgb(193,239,227)"/></linearGradient></defs><polygon id="triangle36" points="1731,1368 2240,1406 1306,1435" style="fill: url(#gr122); stroke: rgb(0, 0, 0); stroke-width: 0;"/><defs><linearGradient id="gr123" x1="0%" x2="100%" y1="0%" y2="100%"><stop offset="0%" stop-color="rgb(191,242,221)"/><stop offset="100%" stop-color="rgb(188,232,221)"/></linearGradient></defs><polygon id="triangle36" points="2,1435 477,1406 1306,1435" style="fill: url(#gr123); stroke: rgb(0, 0, 0); stroke-width: 0;"/><defs><linearGradient id="gr124" x1="0%" x2="100%" y1="0%" y2="100%"><stop offset="0%" stop-color="rgb(201,249,235)"/><stop offset="100%" stop-color="rgb(136,175,167)"/></linearGradient></defs><polygon id="triangle36" points="2240,1406 2461,1427 1306,1435" style="fill: url(#gr124); stroke: rgb(0, 0, 0); stroke-width: 0;"/><defs><linearGradient id="gr125" x1="0%" x2="100%" y1="0%" y2="100%"><stop offset="0%" stop-color="rgb(194,235,222)"/><stop offset="100%" stop-color="rgb(169,212,203)"/></linearGradient></defs><polygon id="triangle36" points="477,1406 1198,1288 1306,1435" style="fill: url(#gr125); stroke: rgb(0, 0, 0); stroke-width: 0;"/><defs><linearGradient id="gr126" x1="0%" x2="100%" y1="0%" y2="100%"><stop offset="0%" stop-color="rgb(33,50,74)"/><stop offset="100%" stop-color="rgb(8,18,41)"/></linearGradient></defs><polygon id="triangle36" points="1682,6 1861,66 2550,24" style="fill: url(#gr126); stroke: rgb(0, 0, 0); stroke-width: 0;"/><defs><linearGradient id="gr127" x1="0%" x2="100%" y1="0%" y2="100%"><stop offset="0%" stop-color="rgb(13,27,56)"/><stop offset="100%" stop-color="rgb(8,8,17)"/></linearGradient></defs><polygon id="triangle36" points="1861,66 2226,165 2550,24" style="fill: url(#gr127); stroke: rgb(0, 0, 0); stroke-width: 0;"/><defs><linearGradient id="gr128" x1="0%" x2="100%" y1="0%" y2="100%"><stop offset="0%" stop-color="rgb(13,26,35)"/><stop offset="100%" stop-color="rgb(20,29,42)"/></linearGradient></defs><polygon id="triangle36" points="2226,165 2541,32 2550,24" style="fill: url(#gr128); stroke: rgb(0, 0, 0); stroke-width: 0;"/><defs><linearGradient id="gr129" x1="0%" x2="100%" y1="0%" y2="100%"><stop offset="0%" stop-color="rgb(64,86,101)"/><stop offset="100%" stop-color="rgb(7,27,39)"/></linearGradient></defs><polygon id="triangle36" points="2375,648 2387,197 2557,435" style="fill: url(#gr129); stroke: rgb(0, 0, 0); stroke-width: 0;"/><defs><linearGradient id="gr130" x1="0%" x2="100%" y1="0%" y2="100%"><stop offset="0%" stop-color="rgb(60,71,88)"/><stop offset="100%" stop-color="rgb(2,10,21)"/></linearGradient></defs><polygon id="triangle36" points="2375,648 2483,787 2557,435" style="fill: url(#gr130); stroke: rgb(0, 0, 0); stroke-width: 0;"/><defs><linearGradient id="gr131" x1="0%" x2="100%" y1="0%" y2="100%"><stop offset="0%" stop-color="rgb(4,23,34)"/><stop offset="100%" stop-color="rgb(10,17,27)"/></linearGradient></defs><polygon id="triangle36" points="2387,197 2541,32 2557,435" style="fill: url(#gr131); stroke: rgb(0, 0, 0); stroke-width: 0;"/><defs><linearGradient id="gr132" x1="0%" x2="100%" y1="0%" y2="100%"><stop offset="0%" stop-color="rgb(14,17,30)"/><stop offset="100%" stop-color="rgb(6,12,24)"/></linearGradient></defs><polygon id="triangle36" points="2541,32 2550,24 2557,435" style="fill: url(#gr132); stroke: rgb(0, 0, 0); stroke-width: 0;"/><defs><linearGradient id="gr133" x1="0%" x2="100%" y1="0%" y2="100%"><stop offset="0%" stop-color="rgb(4,12,26)"/><stop offset="100%" stop-color="rgb(10,12,21)"/></linearGradient></defs><polygon id="triangle36" points="2235,952 2322,1127 2558,997" style="fill: url(#gr133); stroke: rgb(0, 0, 0); stroke-width: 0;"/><defs><linearGradient id="gr134" x1="0%" x2="100%" y1="0%" y2="100%"><stop offset="0%" stop-color="rgb(44,64,81)"/><stop offset="100%" stop-color="rgb(28,39,47)"/></linearGradient></defs><polygon id="triangle36" points="2235,952 2483,787 2558,997" style="fill: url(#gr134); stroke: rgb(0, 0, 0); stroke-width: 0;"/><defs><linearGradient id="gr135" x1="0%" x2="100%" y1="0%" y2="100%"><stop offset="0%" stop-color="rgb(14,17,29)"/><stop offset="100%" stop-color="rgb(10,11,17)"/></linearGradient></defs><polygon id="triangle36" points="2322,1127 2555,1416 2558,997" style="fill: url(#gr135); stroke: rgb(0, 0, 0); stroke-width: 0;"/><defs><linearGradient id="gr136" x1="0%" x2="100%" y1="0%" y2="100%"><stop offset="0%" stop-color="rgb(45,62,74)"/><stop offset="100%" stop-color="rgb(32,44,54)"/></linearGradient></defs><polygon id="triangle36" points="2483,787 2557,435 2558,997" style="fill: url(#gr136); stroke: rgb(0, 0, 0); stroke-width: 0;"/><defs><linearGradient id="gr137" x1="0%" x2="100%" y1="0%" y2="100%"><stop offset="0%" stop-color="rgb(187,233,223)"/><stop offset="100%" stop-color="rgb(107,143,144)"/></linearGradient></defs><polygon id="triangle36" points="1306,1435 2461,1427 2550,1432" style="fill: url(#gr137); stroke: rgb(0, 0, 0); stroke-width: 0;"/><defs><linearGradient id="gr138" x1="0%" x2="100%" y1="0%" y2="100%"><stop offset="0%" stop-color="rgb(83,123,121)"/><stop offset="100%" stop-color="rgb(86,121,125)"/></linearGradient></defs><polygon id="triangle36" points="2461,1427 2555,1416 2550,1432" style="fill: url(#gr138); stroke: rgb(0, 0, 0); stroke-width: 0;"/></svg>